# xmcd
#
# Track frame offsets: 
#        150
#        18609
#        34102
#
# Disc length: 647 seconds
#
# Revision: 5
# Processed by: cddbd v1.5.2PL0 Copyright (c) Steve Scherf et al.
# Submitted via: ExactAudioCopy v1.3
#
DISCID=1d028503
DTITLE=Franz Ferdinand - Matinée
DYEAR=2004
DGENRE=Rock
TTITLE0=Matinée
TTITLE1=Better in Hoboken
TTITLE2=Forty Feet
EXTD=YEAR: 2004
EXTT0=
EXTT1=
EXTT2=
PLAYORDER=
